<svg xmlns="http://www.w3.org/2000/svg" viewBox="0 0 100 100" width="100%" height="100%">
  <rect width="100" height="100" rx="20" fill="#0C0D0F" stroke="#3B82F6" stroke-width="0.5" stroke-opacity="0.2" />
  <g transform="translate(50, 48)">
    <path d="M 0,0 C 3,18 -3,32 0,45" fill="none" stroke="#1B4332" stroke-width="2.5" stroke-linecap="round" />
    <!-- Hydrangea Globe (Multiple small circular blooms clustered) -->
    <circle cx="0" cy="0" r="18" fill="#3B82F6" opacity="0.8" />
    <circle cx="-6" cy="-6" r="6" fill="#60A5FA" />
    <circle cx="6" cy="-6" r="6" fill="#60A5FA" />
    <circle cx="-8" cy="4" r="6" fill="#2563EB" />
    <circle cx="8" cy="4" r="6" fill="#2563EB" />
    <circle cx="0" cy="-10" r="5" fill="#93C5FD" />
    <circle cx="0" cy="8" r="7" fill="#1D4ED8" />
    <circle cx="0" cy="0" r="6" fill="#60A5FA" />
    <!-- Tiny center dots -->
    <circle cx="-6" cy="-6" r="1.5" fill="#FFFFFF" />
    <circle cx="6" cy="-6" r="1.5" fill="#FFFFFF" />
    <circle cx="-8" cy="4" r="1.5" fill="#FFFFFF" />
    <circle cx="8" cy="4" r="1.5" fill="#FFFFFF" />
    <circle cx="0" cy="-10" r="1" fill="#FFFFFF" />
    <circle cx="0" cy="8" r="1.5" fill="#FFFFFF" />
    <circle cx="0" cy="0" r="1.5" fill="#FFFFFF" />
  </g>
</svg>
