<svg xmlns="http://www.w3.org/2000/svg" viewBox="0 0 100 100" width="100%" height="100%">
  <rect width="100" height="100" rx="20" fill="#0E0D0C" stroke="#F97316" stroke-width="0.5" stroke-opacity="0.2" />
  <g transform="translate(50, 48)">
    <path d="M 0,0 C 2,18 -2,32 0,45" fill="none" stroke="#1B4332" stroke-width="3" stroke-linecap="round" />
    <!-- Gerbera Petals (Dense star pattern) -->
    <g>
      <path d="M 0,0 C -3,-18 3,-18 0,0" fill="#F97316" />
      <path d="M 0,0 C -3,-18 3,-18 0,0" fill="#FB923C" transform="rotate(22.5)" />
      <path d="M 0,0 C -3,-18 3,-18 0,0" fill="#FB923C" transform="rotate(45)" />
      <path d="M 0,0 C -3,-18 3,-18 0,0" fill="#F97316" transform="rotate(67.5)" />
      <path d="M 0,0 C -3,-18 3,-18 0,0" fill="#FB923C" transform="rotate(90)" />
      <path d="M 0,0 C -3,-18 3,-18 0,0" fill="#FB923C" transform="rotate(112.5)" />
      <path d="M 0,0 C -3,-18 3,-18 0,0" fill="#FB923C" transform="rotate(135)" />
      <path d="M 0,0 C -3,-18 3,-18 0,0" fill="#F97316" transform="rotate(157.5)" />
      <path d="M 0,0 C -3,-18 3,-18 0,0" fill="#F97316" transform="rotate(180)" />
      <path d="M 0,0 C -3,-18 3,-18 0,0" fill="#FB923C" transform="rotate(202.5)" />
      <path d="M 0,0 C -3,-18 3,-18 0,0" fill="#FB923C" transform="rotate(225)" />
      <path d="M 0,0 C -3,-18 3,-18 0,0" fill="#F97316" transform="rotate(247.5)" />
      <path d="M 0,0 C -3,-18 3,-18 0,0" fill="#FB923C" transform="rotate(270)" />
      <path d="M 0,0 C -3,-18 3,-18 0,0" fill="#FB923C" transform="rotate(292.5)" />
      <path d="M 0,0 C -3,-18 3,-18 0,0" fill="#FB923C" transform="rotate(315)" />
      <path d="M 0,0 C -3,-18 3,-18 0,0" fill="#F97316" transform="rotate(337.5)" />
    </g>
    <!-- Center disk (Dark brown with small yellow dots) -->
    <circle cx="0" cy="0" r="7" fill="#431407" />
    <circle cx="0" cy="0" r="3.5" fill="#1C0A00" />
  </g>
</svg>
