<svg xmlns="http://www.w3.org/2000/svg" viewBox="0 0 100 100" width="100%" height="100%">
  <rect width="100" height="100" rx="20" fill="#0E0C0E" stroke="#EC4899" stroke-width="0.5" stroke-opacity="0.2" />
  <g transform="translate(50, 48)">
    <path d="M 0,0 C -2,18 2,32 0,45" fill="none" stroke="#2D6A4F" stroke-width="2.5" stroke-linecap="round" />
    <!-- Carnation ruffled bloom (layered jagged shapes) -->
    <path d="M 0,5 C -15,5 -18,-5 -10,-12 C -5,-15 5,-15 10,-12 C 18,-5 15,5 0,5 Z" fill="#F472B6" />
    <path d="M 0,2 C -10,2 -13,-5 -8,-10 C -4,-12 4,-12 8,-10 C 13,-5 10,2 0,2 Z" fill="#EC4899" />
    <path d="M 0,-1 C -7,-1 -9,-6 -5,-9 C -2,-10 2,-10 5,-9 C 9,-6 7,-1 0,-1 Z" fill="#F472B6" />
    <circle cx="0" cy="-3" r="3" fill="#D946EF" />
  </g>
</svg>
