<svg xmlns="http://www.w3.org/2000/svg" viewBox="0 0 100 100" width="100%" height="100%">
  <rect width="100" height="100" rx="20" fill="#0C0D0E" stroke="#FFFFFF" stroke-width="0.5" stroke-opacity="0.2" />
  <g transform="translate(50, 48)">
    <path d="M 0,0 C -3,20 3,35 0,45" fill="none" stroke="#2D6A4F" stroke-width="2.5" stroke-linecap="round" />
    <!-- Lily Petals -->
    <path d="M 0,0 C 10,-20 20,-10 0,0" fill="#FFFFFF" opacity="0.9" />
    <path d="M 0,0 C -10,-20 -20,-10 0,0" fill="#FFFFFF" opacity="0.9" />
    <path d="M 0,0 C 18,-8 18,8 0,0" fill="#F4F4F5" />
    <path d="M 0,0 C -18,-8 -18,8 0,0" fill="#F4F4F5" />
    <path d="M 0,0 C 5,-22 -5,-22 0,0" fill="#FFFFFF" />
    <!-- Yellow Pistil/Stamens -->
    <line x1="0" y1="0" x2="0" y2="-12" stroke="#F59E0B" stroke-width="2" stroke-linecap="round" />
    <circle cx="0" cy="-12" r="2" fill="#D97706" />
    <line x1="0" y1="0" x2="5" y2="-10" stroke="#F59E0B" stroke-width="1.5" stroke-linecap="round" />
    <circle cx="5" cy="-10" r="1.5" fill="#D97706" />
    <line x1="0" y1="0" x2="-5" y2="-10" stroke="#F59E0B" stroke-width="1.5" stroke-linecap="round" />
    <circle cx="-5" cy="-10" r="1.5" fill="#D97706" />
  </g>
</svg>
